<svg preserveAspectRatio="xMidYMid meet" viewBox="0 60.75000000000001 227.25 101.25" xmlns="http://www.w3.org/2000/svg" version="1.0" style="max-height: 500px" width="227.25" height="101.25">
<metadata>
Created by potrace 1.10, written by Peter Selinger 2001-2011
</metadata>
<g stroke="none" fill="#000000" transform="translate(0.000000,225.000000) scale(0.100000,-0.100000)">
<path d="M1718 1589 c31 -50 30 -115 -3 -163 -22 -33 -23 -35 -5 -26 11 6 26 25 34 43 l13 32 13 -42 c17 -54 1 -115 -36 -139 -34 -23 -39 -13 -14 29 l21 36 -30 -12 c-17 -6 -33 -8 -37 -5 -9 9 -9 47 0 88 l7 35 -20 -23 c-12 -13 -25 -41 -31 -63 -11 -41 -19 -46 -38 -27 -15 15 -15 6 0 -27 13 -28 33 -33 42 -10 13 34 56 3 56 -39 0 -18 -55 -22 -80 -6 -8 5 -12 10 -8 10 3 0 -7 13 -23 29 -24 24 -29 38 -29 75 0 52 11 59 27 19 l12 -28 -5 26 c-6 27 16 91 40 119 7 8 16 23 19 33 5 14 3 16 -8 10 -17 -10 -65 -73 -65 -86 0 -5 -9 -20 -20 -34 -20 -26 -29 -113 -11 -113 5 0 12 -11 15 -25 4 -14 11 -23 16 -20 6 3 10 -1 10 -9 0 -9 -24 -27 -56 -43 -58 -28 -110 -81 -120 -120 -4 -13 -10 -23 -15 -23 -12 0 -11 3 6 36 20 39 19 56 -5 82 -66 70 -253 44 -318 -45 l-21 -28 -35 42 c-44 51 -81 64 -185 65 -60 1 -86 -3 -106 -16 -24 -16 -28 -16 -44 -2 -11 10 -36 16 -69 16 -43 0 -54 -4 -71 -26 -18 -23 -21 -41 -21 -135 0 -60 -4 -109 -9 -109 -16 0 -21 30 -21 129 0 89 -2 99 -23 119 -17 16 -36 22 -69 22 -39 0 -50 -5 -68 -27 -19 -25 -23 -26 -43 -13 -58 36 -75 40 -179 40 l-108 0 0 -215 c0 -192 2 -215 17 -224 17 -9 17 -10 0 -29 -27 -30 -20 -93 13 -109 20 -10 29 -10 45 2 11 7 18 19 16 27 -4 12 -4 28 0 61 1 6 -2 20 -6 30 -6 15 0 17 54 17 74 0 134 23 162 62 l21 29 43 -40 c25 -23 61 -45 86 -51 76 -21 171 7 210 61 25 35 39 37 39 6 0 -60 98 -90 153 -47 31 25 39 25 62 0 10 -11 31 -20 46 -20 15 0 31 -4 34 -10 3 -5 2 -10 -4 -10 -17 0 -43 -59 -36 -81 8 -26 48 -51 68 -43 9 3 21 21 27 40 9 27 8 40 -4 66 -16 31 -16 33 13 61 l29 30 31 -22 c72 -51 231 -49 281 4 l23 24 32 -24 c31 -24 37 -25 203 -26 147 -1 175 2 201 17 29 17 31 17 51 -1 25 -23 25 -37 0 -60 -27 -24 -25 -66 3 -93 33 -32 76 -17 67 23 -8 38 -8 45 2 45 6 0 8 10 4 23 -4 19 0 25 28 35 19 7 37 19 40 27 7 20 28 19 52 -4 29 -26 59 -34 104 -26 l40 7 0 49 c0 37 -7 60 -27 90 l-26 40 21 43 c28 55 28 95 0 136 -43 63 -68 74 -178 78 l-100 4 -29 -31 c-25 -26 -31 -29 -41 -16 -7 8 -36 26 -65 40 l-54 25 29 55 c31 59 31 57 8 135 -10 30 -20 72 -23 92 -4 27 -15 44 -38 60 l-31 23 22 -36z m79 -388 c50 -25 93 -75 93 -107 0 -13 0 -27 0 -30 0 -3 -103 -6 -230 -7 -251 -2 -242 -4 -216 56 19 45 66 86 117 103 61 20 183 12 236 -15z m-1347 -116 c0 -136 10 -165 59 -165 46 0 51 14 51 152 l0 128 53 0 52 0 -3 -132 c-2 -149 -13 -182 -65 -213 -39 -24 -129 -26 -171 -5 -62 31 -71 57 -74 213 l-3 142 50 0 51 0 0 -120z m513 92 c39 -25 51 -63 37 -109 -6 -21 -21 -45 -33 -55 l-23 -17 54 -78 53 -78 -58 0 -58 0 -35 65 c-45 84 -60 84 -60 0 l0 -65 -50 0 -50 0 0 183 0 182 98 -5 c71 -4 106 -10 125 -23z m373 22 c24 -6 44 -13 44 -15 0 -2 -8 -19 -17 -39 -16 -33 -20 -35 -48 -28 -50 12 -97 6 -119 -17 -17 -16 -21 -33 -21 -79 0 -74 20 -101 77 -101 36 0 38 2 38 30 0 28 -3 30 -31 28 -30 -3 -32 -1 -33 35 l-1 37 80 0 81 0 -1 -97 c-1 -92 -2 -97 -26 -106 -13 -5 -58 -10 -99 -10 -59 -1 -83 3 -110 18 -74 43 -103 171 -60 261 40 81 130 112 246 83z m-1089 -18 c39 -25 51 -67 28 -110 -8 -17 -23 -31 -33 -31 -12 0 -8 -7 16 -26 27 -22 32 -32 32 -68 0 -34 -6 -48 -31 -72 -29 -28 -34 -29 -140 -32 l-109 -4 0 181 0 181 103 0 c83 0 108 -4 134 -19z m1887 5 c77 -32 89 -125 24 -177 -19 -15 -18 -17 31 -89 28 -40 51 -76 51 -80 0 -3 -25 -6 -55 -6 l-54 1 -38 67 c-49 88 -63 88 -63 1 l0 -68 -50 0 -50 0 0 183 0 182 85 0 c51 0 99 -6 119 -14z m-259 -166 c0 -13 -31 -15 -212 -18 -174 -2 -213 0 -213 11 0 8 3 17 7 21 4 3 99 5 212 4 175 -3 206 -5 206 -18z m-383 -57 c17 -15 19 -15 36 0 26 24 357 25 366 2 3 -8 3 -22 0 -30 -9 -22 -452 -22 -460 0 -16 40 24 59 58 28z m378 -83 c-19 -35 -45 -40 -208 -40 -146 0 -161 2 -186 21 -14 11 -26 25 -26 30 0 5 90 9 215 9 212 0 216 0 205 -20z m-1807 -128 c-32 -5 -32 -49 0 -62 22 -9 22 -9 1 -9 -29 -1 -48 23 -40 53 6 24 32 38 51 27 6 -3 0 -7 -12 -9z m956 8 c-1 -3 3 -15 10 -27 10 -20 9 -23 -9 -23 -25 0 -27 -17 -2 -24 10 -3 7 -4 -8 -3 -31 2 -40 35 -14 54 10 7 13 13 5 13 -7 0 -9 5 -6 11 6 10 29 9 24 -1z m941 -10 c-18 -4 -25 -13 -25 -30 0 -17 7 -26 25 -31 l25 -7 -28 -1 c-20 -1 -30 6 -39 25 -11 23 -10 29 10 45 14 10 30 15 40 11 14 -5 12 -7 -8 -12z"/>
<path d="M840 1086 c0 -41 2 -44 23 -39 21 5 47 29 47 44 0 15 -32 39 -51 39 -16 0 -19 -7 -19 -44z"/>
<path d="M110 1095 c0 -30 3 -35 24 -35 21 0 56 22 56 35 0 13 -35 35 -56 35 -21 0 -24 -5 -24 -35z"/>
<path d="M110 952 l0 -39 38 6 c29 5 38 11 40 30 4 28 -12 41 -50 41 -26 0 -28 -3 -28 -38z"/>
<path d="M2030 1084 c0 -36 3 -44 18 -44 59 0 71 69 15 81 l-33 6 0 -43z"/>
<path d="M1664 1553 c-10 -27 -22 -54 -28 -62 -9 -12 -8 -12 10 -3 27 14 54 55 54 81 0 39 -19 30 -36 -16z"/>
<path d="M1358 1458 c-5 -15 -136 -28 -161 -16 -12 6 -30 5 -49 -1 -20 -7 -36 -7 -48 -1 -28 15 -42 12 -72 -13 -27 -21 -27 -23 -15 -65 7 -23 23 -52 35 -64 21 -21 22 -21 42 -3 18 16 22 17 38 3 13 -12 45 -15 150 -14 157 1 162 4 162 96 0 42 -5 61 -18 73 -22 20 -59 22 -64 5z m52 -37 c14 -27 13 -31 -10 -31 -11 0 -20 -4 -20 -10 0 -5 7 -7 15 -4 9 4 15 0 15 -10 0 -10 -6 -13 -15 -10 -9 4 -15 0 -15 -9 0 -8 7 -14 16 -13 9 0 19 -5 21 -11 3 -9 -6 -13 -26 -13 -30 0 -31 1 -31 50 0 45 2 50 23 51 l22 2 -23 4 c-12 2 -20 9 -17 14 10 15 34 10 45 -10z m-300 -21 c0 -5 -7 -10 -15 -10 -11 0 -15 -11 -15 -41 0 -28 -4 -39 -12 -37 -8 3 -12 19 -10 41 3 28 0 37 -12 37 -9 0 -16 5 -16 10 0 6 18 10 40 10 22 0 40 -4 40 -10z m95 0 c-3 -5 -15 -10 -26 -10 -16 0 -20 -6 -17 -27 2 -20 8 -27 21 -25 10 2 17 -3 17 -13 0 -20 -34 -19 -54 1 -19 18 -21 55 -4 72 15 15 72 16 63 2z m55 -10 c0 -11 7 -20 15 -20 8 0 15 9 15 20 0 11 7 20 15 20 11 0 15 -12 15 -51 0 -36 -4 -49 -12 -47 -7 3 -14 14 -16 26 -5 31 -32 28 -32 -3 0 -14 -4 -25 -10 -25 -5 0 -10 23 -10 50 0 28 5 50 10 50 6 0 10 -9 10 -20z"/>
<path d="M677 1417 c-21 -26 -22 -59 -2 -97 19 -36 27 -38 163 -36 127 2 140 8 149 72 4 33 1 43 -21 63 -22 21 -29 23 -51 13 -15 -7 -27 -8 -30 -2 -8 13 -62 13 -70 0 -4 -6 -12 -7 -18 -3 -6 4 -32 8 -57 9 -36 1 -50 -3 -63 -19z m45 -44 c2 -21 8 -38 13 -38 6 0 11 17 13 38 2 24 8 37 18 37 20 0 19 -64 -2 -84 -33 -33 -64 -11 -64 46 0 49 18 50 22 1z m157 0 c7 -21 15 -44 17 -50 3 -7 -1 -13 -10 -13 -9 0 -16 7 -16 15 0 8 -9 15 -20 15 -11 0 -20 -7 -20 -15 0 -8 -7 -15 -16 -15 -9 0 -13 6 -10 13 2 6 10 29 17 50 8 23 18 37 29 37 11 0 21 -14 29 -37z m71 -13 c0 -38 -4 -50 -15 -50 -11 0 -15 12 -15 50 0 38 4 50 15 50 11 0 15 -12 15 -50z"/>
<path d="M34 1390 c-38 -7 -47 -46 -12 -55 13 -3 104 -4 203 -3 l180 3 3 28 c3 22 -1 27 -20 28 -145 3 -330 3 -354 -1z m366 -30 c0 -6 -70 -10 -190 -10 -120 0 -190 4 -190 10 0 6 70 10 190 10 120 0 190 -4 190 -10z"/>
<path d="M1868 1392 c-28 -3 -41 -22 -32 -47 5 -13 36 -15 194 -15 104 0 195 3 204 6 26 10 19 43 -11 50 -27 7 -305 12 -355 6z m362 -32 c0 -6 -70 -10 -190 -10 -120 0 -190 4 -190 10 0 6 70 10 190 10 120 0 190 -4 190 -10z"/>
<path d="M1697 773 c-53 -61 14 -156 78 -109 14 10 17 21 12 51 -11 66 -56 95 -90 58z m49 -39 c-6 -21 -4 -25 8 -21 11 4 16 1 16 -11 0 -12 -9 -18 -29 -20 -36 -3 -43 7 -35 47 5 22 12 31 26 31 17 0 19 -5 14 -26z"/>
<path d="M1392 768 c-17 -17 -15 -83 3 -98 24 -20 47 6 44 49 -4 54 -23 73 -47 49z m28 -58 c0 -16 -4 -30 -10 -30 -5 0 -10 14 -10 30 0 17 5 30 10 30 6 0 10 -13 10 -30z"/>
<path d="M2057 762 c-35 -39 -9 -123 28 -92 19 16 20 84 2 99 -11 8 -18 7 -30 -7z m23 -52 c0 -16 -4 -30 -10 -30 -5 0 -10 14 -10 30 0 17 5 30 10 30 6 0 10 -13 10 -30z"/>
<path d="M161 744 c-26 -34 -26 -37 3 -71 24 -27 26 -27 53 -13 36 20 43 64 14 91 -27 26 -46 24 -70 -7z m59 -9 c18 -22 3 -57 -23 -53 -25 3 -34 32 -17 53 16 19 24 19 40 0z"/>
<path d="M308 751 c-22 -22 -23 -40 -3 -68 21 -30 65 -26 84 9 13 23 13 28 -2 52 -20 30 -54 33 -79 7z m62 -42 c0 -16 -4 -29 -9 -29 -4 0 -6 11 -3 25 3 18 0 25 -11 25 -9 0 -17 -11 -20 -27 -4 -27 -4 -27 -6 4 -1 31 12 44 37 35 6 -2 12 -17 12 -33z"/>
<path d="M580 748 c-25 -27 -25 -39 1 -72 24 -30 40 -33 61 -8 27 30 30 57 9 80 -23 28 -45 28 -71 0z m58 -21 c2 -10 -5 -17 -20 -19 l-23 -5 25 -11 25 -12 -25 3 c-28 2 -38 30 -19 53 14 18 33 13 37 -9z"/>
<path d="M714 746 c-13 -22 -14 -29 -2 -53 25 -52 98 -40 98 17 0 55 -66 80 -96 36z m64 -8 c15 -15 16 -58 2 -58 -5 0 -10 11 -10 25 0 14 -4 25 -10 25 -5 0 -10 -11 -10 -25 0 -14 -4 -25 -10 -25 -15 0 -12 57 3 63 19 8 22 8 35 -5z"/>
<path d="M867 763 c-12 -11 -8 -78 5 -91 19 -19 38 6 38 50 0 32 -3 39 -16 34 -8 -3 -12 -2 -9 4 7 11 -8 14 -18 3z"/>
<path d="M1116 754 c-20 -19 -21 -68 -2 -83 23 -20 69 -9 83 18 26 54 -40 107 -81 65z m64 -45 c0 -16 -4 -29 -10 -29 -5 0 -10 11 -10 25 0 14 -4 25 -10 25 -5 0 -10 -11 -10 -25 0 -14 -4 -25 -10 -25 -18 0 -11 58 8 62 29 7 42 -3 42 -33z"/>
<path d="M1273 762 c-24 -15 -33 -58 -17 -81 14 -20 63 -30 65 -13 12 84 -6 121 -48 94z m42 -22 c3 -5 -3 -10 -14 -10 -28 0 -27 -28 2 -40 22 -10 22 -10 -3 -7 -18 1 -26 9 -28 26 -5 31 28 55 43 31z"/>
<path d="M1508 757 c-27 -21 -33 -65 -13 -87 23 -25 47 -25 68 -2 22 24 21 65 -1 85 -22 20 -31 21 -54 4z m40 -19 c7 -7 12 -22 12 -35 0 -18 -6 -23 -24 -23 -39 0 -43 29 -6 43 12 4 11 6 -3 6 -10 1 -15 6 -12 11 8 13 18 13 33 -2z"/>
<path d="M2168 753 c-26 -30 -28 -63 -7 -84 23 -23 38 -24 67 -3 28 20 29 61 0 85 -26 24 -41 24 -60 2z m40 -15 c7 -7 12 -22 12 -35 0 -18 -6 -23 -25 -23 -29 0 -34 24 -7 39 16 10 16 10 -1 11 -10 0 -15 5 -12 10 8 13 18 13 33 -2z"/>
<path d="M441 741 c-6 -10 -4 -28 5 -49 10 -26 19 -33 36 -30 30 4 57 52 42 75 -15 23 -72 26 -83 4z m52 -10 c3 13 9 21 12 18 7 -8 -15 -69 -25 -69 -4 0 -10 8 -13 18 -2 9 -8 26 -12 37 -6 17 -4 16 13 -4 l19 -24 6 24z"/>
</g>
</svg>